<svg xmlns="http://www.w3.org/2000/svg" xmlns:xlink="http://www.w3.org/1999/xlink" fill="none" version="1.1" width="291" height="297" viewBox="0 0 291 297"><defs><clipPath id="master_svg0_1_498"><rect x="0" y="0" width="291" height="297" rx="0"/></clipPath><linearGradient x1="0.5" y1="0" x2="0.5" y2="1" id="master_svg1_1_420"><stop offset="0%" stop-color="#B461FF" stop-opacity="1"/><stop offset="100%" stop-color="#6D63FF" stop-opacity="1"/></linearGradient><linearGradient x1="0.5" y1="0" x2="0.5" y2="1" id="master_svg2_1_494"><stop offset="0%" stop-color="#B361FF" stop-opacity="1"/><stop offset="100%" stop-color="#6E63FF" stop-opacity="1"/></linearGradient></defs><g clip-path="url(#master_svg0_1_498)"><g><g><rect x="91" y="78" width="111" height="65" rx="0" fill="#FFFFFF" fill-opacity="1"/></g><g><path d="M211.666,63C223.547,63,233.028,73.0695,233.216,85.3723L233.219,85.7457L233.219,155.29340000000002C233.219,167.64,223.857,177.833,212.026,178.036L211.666,178.039L172.24099999999999,178.039L149.358,147.1488C149.1421,146.85739999999998,148.888,146.59629999999999,148.60250000000002,146.3727L148.51600000000002,146.3066C146.7414,144.9922,144.2453,145.3465,142.9049,147.09019999999998L142.8607,147.1488L119.97710000000001,178.039L80.5529,178.039C68.67168,178.039,59.19121,167.97,59.00292969,155.6668L59,155.29340000000002L59,85.7457C59,73.3986,68.36172,63.205666,80.1934,63.00312614L80.5527,63.00000190735L211.666,63ZM117.1592,134.66230000000002C115.2693,136.26909999999998,115.0389,139.1051,116.6443,140.9965C118.2498,142.8879,121.0838,143.11860000000001,122.9734,141.51170000000002C137.924,128.8004,151.4725,128.1818,166.68200000000002,141.4721C168.55,143.1043,171.386,142.9121,173.017,141.0426C174.648,139.1731,174.45600000000002,136.33440000000002,172.588,134.702C153.87009999999998,118.3459,135.3557,119.19120000000001,117.1592,134.66230000000002ZM94.7904,110.3805C92.90350000000001,111.99080000000001,92.6781,114.8271,94.28710000000001,116.7156C95.89609999999999,118.6041,98.7301,118.8297,100.6172,117.2195C130.5199,91.7027,158.525,90.41929999999999,189.038,117.1797C190.903,118.8152,193.74,118.6281,195.374,116.76169999999999C197.009,114.8951,196.822,112.0561,194.957,110.4203C160.93,80.5791,127.9432,82.0906,94.7904,110.3805Z" fill="url(#master_svg1_1_420)" fill-opacity="1"/></g><g><path d="M164.3707,183.2677Q164.4299,183.3514,164.4832,183.439Q164.5366,183.5265,164.5838,183.6175Q164.6311,183.70850000000002,164.672,183.8025Q164.7129,183.8965,164.7473,183.9931Q164.7818,184.0897,164.8095,184.1884Q164.8372,184.2871,164.8582,184.3874Q164.8791,184.4878,164.8931,184.5894Q164.9072,184.6909,164.9142,184.7932Q164.9213,184.8955,164.9214,184.998Q164.9214,185.1005,164.9145,185.2028Q164.9076,185.3051,164.8937,185.4067Q164.8798,185.5083,164.859,185.6087Q164.8382,185.7091,164.8106,185.8078Q164.78300000000002,185.9066,164.74869999999999,186.0032Q164.7144,186.0998,164.6736,186.19389999999999Q164.6328,186.2879,164.5857,186.379Q164.5385,186.47,164.4853,186.5576Q164.4321,186.6453,164.373,186.7291Q164.3139,186.8128,164.2492,186.8924Q164.1845,186.9719,164.1146,187.0469Q164.0446,187.1219,163.9697,187.1919Q163.8948,187.2619,163.8153,187.32659999999998Q163.73579999999998,187.3913,163.652,187.4505Q163.5683,187.5096,163.4807,187.5629Q163.3931,187.6162,163.3021,187.6634Q163.2111,187.7106,163.1171,187.7514Q163.023,187.7923,162.9264,187.82659999999998Q162.8298,187.861,162.7311,187.8887Q162.6324,187.9163,162.53199999999998,187.9372Q162.4316,187.9581,162.32999999999998,187.972Q162.2285,187.986,162.12619999999998,187.993Q162.0239,188,161.9214,188L131.07863,188Q130.9761,188,130.87382,187.993Q130.77153,187.986,130.66996,187.972Q130.56839,187.9581,130.46801,187.9372Q130.36763,187.9163,130.26891,187.8887Q130.17019,187.861,130.07359,187.82659999999998Q129.97698,187.7923,129.88295,187.7514Q129.78892,187.7106,129.6979,187.6634Q129.60688,187.6162,129.51929,187.5629Q129.4317,187.5096,129.34796,187.4505Q129.26421,187.3913,129.1847,187.32659999999998Q129.10519,187.2619,129.03028,187.1919Q128.95537,187.1219,128.88542,187.0469Q128.81546,186.9719,128.75079,186.8924Q128.68612,186.8128,128.62703,186.7291Q128.56793,186.6453,128.5147,186.5576Q128.46147,186.47,128.41434,186.379Q128.36721,186.2879,128.32641,186.19389999999999Q128.28561,186.0998,128.25133,186.0032Q128.21704,185.9066,128.18944,185.8078Q128.16183,185.7091,128.14103,185.6087Q128.12023,185.5083,128.10633,185.4067Q128.09243,185.3051,128.0855,185.2028Q128.07856,185.1005,128.07863,184.998Q128.0787,184.8955,128.08577,184.7932Q128.09283,184.6909,128.10687,184.5894Q128.1209,184.4878,128.14183,184.3874Q128.16277,184.2871,128.19051,184.1884Q128.21824,184.0897,128.25266,183.9931Q128.28707,183.8965,128.32799,183.8025Q128.36892,183.70850000000002,128.41616,183.6175Q128.46341,183.5265,128.51676,183.439Q128.57011,183.3514,128.62931,183.2677L144.0507,161.46314Q144.1024,161.39,144.1584,161.32009Q144.2144,161.25017,144.2745,161.18371Q144.3345,161.11726,144.3985,161.05451Q144.4624,160.99176,144.5299,160.93293Q144.5975,160.87411,144.6685,160.81942Q144.7394,160.76473,144.8135,160.71437Q144.8876,160.66401,144.9645,160.61817Q145.04149999999998,160.57232,145.121,160.53114Q145.2006,160.48997,145.2825,160.45361Q145.36430000000001,160.41726,145.44819999999999,160.38585Q145.5321,160.35444,145.6177,160.3281Q145.7033,160.30176,145.7904,160.28057Q145.8774,160.25938,145.9656,160.24342Q146.0537,160.22746,146.14260000000002,160.21679Q146.23160000000001,160.20612,146.321,160.20078Q146.4104,160.19543,146.5,160.19543Q146.5896,160.19543,146.679,160.20078Q146.76839999999999,160.20612,146.85739999999998,160.21679Q146.9463,160.22746,147.0344,160.24342Q147.1226,160.25938,147.2096,160.28057Q147.2967,160.30176,147.3823,160.3281Q147.4679,160.35444,147.55180000000001,160.38585Q147.63569999999999,160.41726,147.7176,160.45361Q147.7994,160.48997,147.879,160.53114Q147.95850000000002,160.57232,148.0355,160.61817Q148.1124,160.66401,148.1865,160.71437Q148.2606,160.76473,148.3316,160.81942Q148.4025,160.87411,148.4701,160.93293Q148.5376,160.99176,148.6015,161.05451Q148.6655,161.11726,148.7255,161.18371Q148.7856,161.25017,148.8416,161.32009Q148.8976,161.39,148.9493,161.46314L164.3707,183.2677Z" fill="url(#master_svg2_1_494)" fill-opacity="1"/></g></g></g></svg>